<?xml version="1.0" encoding="UTF-8"?><svg id="a" xmlns="http://www.w3.org/2000/svg" xmlns:xlink="http://www.w3.org/1999/xlink" viewBox="0 0 306.99 409.9"><defs><style>.e{fill:#fff;}.f{fill:url(#c);}.g{fill:url(#d);stroke-width:4px;}.g,.h{stroke:#231f20;stroke-miterlimit:10;}.i{fill:url(#b);}.h{stroke-width:2px;}.h,.j{fill:#231f20;}</style><linearGradient id="b" x1=".53" y1="334.23" x2="306.46" y2="334.23" gradientTransform="matrix(1, 0, 0, 1, 0, 0)" gradientUnits="userSpaceOnUse"><stop offset="0" stop-color="#ae81b9"/><stop offset="1" stop-color="#0576bc"/></linearGradient><linearGradient id="c" x1=".53" y1="170.01" x2="306.45" y2="170.01" xlink:href="#b"/><linearGradient id="d" x1="221.75" y1="204.95" x2="85.23" y2="204.95" gradientTransform="matrix(1, 0, 0, 1, 0, 0)" gradientUnits="userSpaceOnUse"><stop offset="0" stop-color="#3576b6"/><stop offset="1" stop-color="#ae81b9"/></linearGradient></defs><rect class="j" x="212.09" y="78.28" width="27.7" height="25.66"/><g><g><path class="j" d="M26.13,409.1c-14.13,0-25.63-11.5-25.63-25.63V26.13C.5,12,12,.5,26.13,.5H215.36V101.88h91.13V383.47c0,14.13-11.5,25.63-25.63,25.63H26.13Z"/><path class="j" d="M214.86,1V102.39h91.13V383.47c0,13.86-11.27,25.13-25.13,25.13H26.13c-13.86,0-25.13-11.27-25.13-25.13V26.13C1,12.27,12.27,1,26.13,1H214.86m1-1H26.13C11.7,0,0,11.7,0,26.13V383.47c0,14.43,11.7,26.13,26.13,26.13h254.72c14.43,0,26.13-11.7,26.13-26.13V101.39h-91.13V0h0Z"/></g><g><g><path class="i" d="M45.33,409.4l-.1-.09c-.19-.18-.4-.36-.64-.51-9.35-5.6-17.84-12.55-25.62-19.22-5.86-5.02-11.72-10.04-17.61-15.04-.6-.51-.82-.99-.82-1.76,.02-33.71,.02-67.42,.02-101.13v-12.58l.23,.53c.69,1.63,1.38,3.26,2.1,4.88,1.08,2.44,2.14,4.89,3.19,7.34,2.5,5.79,5.08,11.77,7.9,17.53,4.78,9.77,11.48,18.53,17.38,25.96,10.62,13.39,22.72,24.96,35.98,34.37,17.32,12.31,36.91,21.11,58.23,26.17,10.31,2.44,19.66,3.91,28.6,4.47,8.09,.51,14.67,.75,20.69,.75,1.34,0,2.68-.01,4.03-.04,18.48-.35,36.7-3.53,54.15-9.45,17.27-5.86,34.01-14.5,49.74-25.66,6.59-4.68,13.28-10.03,20.46-16.36,.78-.69,1.64-1.33,2.54-2.01,.22-.16,.44-.33,.66-.5,.01,.2,.02,.38,.02,.56v14.79c.01,13.91,.02,27.82,0,41.73-.02,12.71-10.32,23.93-22.95,25.01-.29,.02-.56,.1-.81,.18-.08,.02-.16,.05-.24,.07H45.33Z"/><path class="j" d="M1.05,261.52c.45,1.05,.9,2.11,1.37,3.16,1.08,2.44,2.13,4.89,3.19,7.34,2.5,5.79,5.09,11.79,7.91,17.55,4.8,9.81,11.52,18.59,17.44,26.06,10.65,13.43,22.79,25.02,36.08,34.47,17.37,12.34,37.02,21.18,58.41,26.25,10.33,2.45,19.71,3.92,28.68,4.49,8.1,.51,14.69,.75,20.72,.75,1.36,0,2.72-.01,4.04-.04,18.54-.35,36.81-3.54,54.3-9.48,17.32-5.88,34.1-14.54,49.87-25.73,6.61-4.69,13.31-10.05,20.5-16.39,.73-.65,1.54-1.26,2.39-1.9,0,4.91,0,9.83,0,14.74,0,13.55,.01,27.56-.01,41.34-.02,12.46-10.12,23.45-22.49,24.51-.34,.03-.64,.12-.91,.2-.06,.02-.11,.03-.17,.05H45.52c-.19-.17-.41-.37-.68-.53-9.31-5.58-17.78-12.51-25.55-19.17-6.24-5.35-11.87-10.17-17.61-15.04-.49-.41-.64-.75-.64-1.38,.02-33.9,.02-67.81,.02-101.71v-9.55m-.76-4.34l-.24,.07c0,.31,0,.62,0,.93,0,38.2,0,76.39-.02,114.59,0,.93,.29,1.55,1,2.15,5.89,4.99,11.75,10.01,17.61,15.03,8.14,6.98,16.46,13.74,25.69,19.27,.3,.18,.54,.44,.82,.67h237.36c.34-.09,.68-.22,1.03-.25,12.93-1.1,23.38-12.44,23.41-25.51,.04-18.84,.01-37.68,0-56.52,0-.41-.05-.83-.09-1.52-1.47,1.14-2.78,2.05-3.97,3.1-6.54,5.77-13.3,11.27-20.42,16.32-15.33,10.88-31.79,19.55-49.61,25.6-17.51,5.95-35.54,9.08-54,9.43-1.34,.03-2.68,.04-4.02,.04-6.89,0-13.79-.32-20.66-.75-9.62-.61-19.12-2.24-28.51-4.46-21.02-4.99-40.43-13.56-58.06-26.09-13.63-9.68-25.5-21.2-35.88-34.28-6.47-8.15-12.73-16.5-17.32-25.87-3.99-8.14-7.42-16.56-11.08-24.86-1.04-2.35-2.03-4.73-3.04-7.09H.29Z"/></g><g><path class="f" d="M165.94,329.46c-17.38,0-34.06-3.1-49.58-9.21-13.66-5.38-26.11-13-37.01-22.65-16.7-14.79-28.71-32.91-35.68-53.84-3.18-9.55-5.1-19.5-5.71-29.57-1.28-21.19,2.99-41.54,12.68-60.5,4.46-8.72,10.24-16.84,17.18-24.14,14.21-14.94,31.53-25.03,51.48-29.99,7.7-1.92,15.54-2.89,23.3-2.89,1.81,0,3.65,.05,5.46,.16,21.62,1.25,40.65,8.62,56.55,21.88,17.65,14.73,28.17,33.59,31.27,56.07,3.14,22.78-2.23,43.62-15.98,61.94-12.43,16.57-29.06,26.42-49.41,29.27-3.77,.53-7.52,.79-11.14,.79-15.54,0-29.73-4.87-42.17-14.47-14.28-11.02-22.71-25.27-25.05-42.35-2.52-18.38,2.32-34.69,14.39-48.48,8.95-10.23,20.49-16.39,34.28-18.3,2.31-.32,4.66-.48,6.98-.48,21.45,0,40.46,13.29,47.3,33.07,6.87,19.83-.94,41.69-18.55,51.99-6.18,3.61-13.02,5.52-19.8,5.52-9.49,0-18.42-3.56-25.82-10.31-6.19-5.64-9.69-12.77-10.41-21.2-.55-6.39,.25-11.83,2.44-16.65,4.52-9.94,12.31-15.82,23.16-17.49,1.54-.24,3.07-.36,4.54-.36,7.26,0,13.67,2.81,19.04,8.36,3.97,4.1,6.22,9.12,6.69,14.93,.56,6.85-1.55,12.99-6.25,18.25-2.91,3.25-6.75,5.24-11.73,6.07-1.39,.23-2.75,.35-4.04,.35-4.42,0-8.22-1.33-11.6-4.06-7.05-5.68-9.07-15.05-4.9-22.77,2.64-4.9,7.78-7.94,13.4-7.94,4.73,0,8.98,2.16,11.67,5.92,2.44,3.43,3.16,7.4,1.97,10.91-1.23,3.62-4.4,6.37-8.93,7.74-.37,.11-.81,.17-1.25,.17-.38,0-.75-.04-1.09-.13-3.43-.83-6.21-2.65-8.27-5.4-.86-1.15-1.11-2.5-.72-3.91,.5-1.83,1.26-3.57,1.94-5.03,.66-1.42,1.9-2.25,3.59-2.4,.72-.06,1.45-.1,2.18-.1,.6,0,1.21,.02,1.81,.07,1.71,.13,2.46,1.47,2.76,2.26,.59,1.56,1.08,3.2,1.55,4.79l.4,1.34c.22,.74,.42,1.48,.61,2.23l.38,1.44,1.33-.15v-.44c.02-.88,.06-1.77,.1-2.65,.08-1.99,.17-4.04,0-6.06-.32-3.57-3.72-6.72-7.58-7.03-.44-.03-.87-.05-1.29-.05-5.46,0-9.7,2.78-11.63,7.62-2.09,5.24-.32,11.67,4.2,15.3,2.75,2.2,6.02,3.37,9.46,3.37,5.87,0,11.3-3.42,14.19-8.93,4.05-7.73,1.88-17.05-5.28-22.66-3.74-2.93-8.06-4.48-12.51-4.48-6.31,0-12.65,3.1-16.98,8.29-3.67,4.4-5.49,9.46-5.41,15.04,.12,7.72,3.24,14.27,9.3,19.47,4.97,4.27,10.84,6.43,17.45,6.43h.32c14.74-.16,26.72-10.1,29.81-24.73,3.13-14.82-4.27-30.38-17.99-37.86-5.59-3.04-11.93-4.65-18.34-4.65-9.7,0-19.12,3.56-26.54,10.01-8.85,7.71-13.86,17.49-14.88,29.08-1.08,12.36,2.41,23.78,10.4,33.94,8.01,10.19,18.28,16.29,30.53,18.11,3.55,.53,7.04,.8,10.37,.8,12.62,0,23.87-3.88,33.44-11.52,6.39-5.11,11.67-11.75,16.14-20.3,3.62-6.93,5.86-14.12,6.64-21.36,1.04-9.62-.41-19.33-4.32-28.88-3.8-9.3-8.74-16.91-15.09-23.27-10.46-10.47-23.2-17-37.87-19.4-4.47-.73-8.92-1.1-13.22-1.1-14.87,0-28.76,4.39-41.28,13.05-18.85,13.04-30.34,31.03-34.14,53.45-4.53,26.72,2.26,51.16,20.18,72.63,10.14,12.15,23.47,21.3,39.63,27.19,9.02,3.29,18.32,5.21,27.64,5.72,2.06,.11,4.13,.17,6.16,.17,23.31,0,44.85-7.47,64.02-22.21,16.76-12.89,28.89-30,36.07-50.87,3.25-9.45,5.27-19.15,5.99-28.81,1.54-20.6-2.1-40.68-10.82-59.66-5.59-12.18-12.65-22.81-20.97-31.58-2.61-2.75-5.54-5.28-8.37-7.72-1.83-1.58-3.71-3.2-5.5-4.88-6.98-6.55-15.31-12-26.22-17.15-11.02-5.2-23.15-8.88-36.06-10.93-7.2-1.14-14.44-1.72-21.52-1.72-1.38,0-2.76,.02-4.15,.07-19.05,.6-37.49,4.93-54.81,12.86-14.62,6.7-27.97,15.74-39.69,26.87-16.39,15.57-28.88,34.5-37.12,56.28-.74,1.95-1.56,3.91-2.35,5.81-.23,.55-.46,1.1-.69,1.65v-17.83c0-26.34,0-52.69-.02-79.03,0-.85,.26-1.35,1.03-1.97,1.95-1.56,3.88-3.19,5.76-4.77,1.34-1.12,2.67-2.25,4.02-3.36,20.76-17.07,42.18-28.99,65.47-36.45,11.77-3.77,24.08-6.31,36.58-7.56,6.37-.64,12.6-.96,18.51-.96,2,0,4.01,.04,5.97,.11,25.09,.93,47.39,5.52,68.17,14.04,2.57,1.05,5.14,2.23,7.63,3.37l1.23,.56c.41,.19,.83,.5,1.3,.95,4.56,4.43,9.11,8.87,13.66,13.31l7.74,7.54c9.16,8.93,18.33,17.86,27.5,26.78,2.27,2.21,4.55,4.42,6.83,6.63,5.6,5.44,11.4,11.07,17.06,16.64,1.07,1.05,2.06,2.44,2.88,4.02,4.1,7.95,7.15,16.55,9.83,24.13,.67,1.9,1.36,3.79,2.05,5.68,.75,2.05,1.5,4.1,2.22,6.16,.3,.85,.46,1.68,.46,2.39,.03,24.32,.02,48.64,.01,72.96,0,.49,0,1.05-.15,1.5-.42,1.24-.83,2.48-1.25,3.72-2.79,8.34-5.68,16.97-9.52,25.07-8.48,17.88-19.8,33.43-33.66,46.2-16.81,15.5-36.47,26.36-58.43,32.28-9.48,2.55-19.42,4.12-29.57,4.64-2.65,.14-5.32,.21-7.93,.21Z"/><path class="j" d="M131.91,11.06c2,0,4,.04,5.95,.11,25.03,.92,47.28,5.5,68,14,2.56,1.05,5.12,2.22,7.61,3.36l1.24,.57c.35,.16,.73,.44,1.16,.85,4.55,4.43,9.1,8.87,13.65,13.3,2.58,2.52,5.16,5.03,7.74,7.55,9.16,8.93,18.33,17.86,27.5,26.78,2.29,2.23,4.58,4.45,6.87,6.67,5.59,5.43,11.37,11.04,17.01,16.6,1.03,1.02,1.99,2.36,2.78,3.89,4.08,7.91,7.12,16.5,9.81,24.07,.67,1.89,1.36,3.77,2.04,5.66,.74,2.03,1.5,4.12,2.23,6.19,.28,.8,.43,1.57,.43,2.22,.03,25.25,.02,50.9,.01,72.96,0,.48,0,.97-.12,1.34-.42,1.24-.83,2.48-1.25,3.72-2.79,8.33-5.67,16.95-9.5,25.02-8.45,17.82-19.74,33.32-33.55,46.05-16.75,15.44-36.34,26.26-58.22,32.17-9.44,2.54-19.35,4.1-29.46,4.62-2.64,.14-5.3,.21-7.9,.21-17.32,0-33.94-3.09-49.4-9.18-13.61-5.36-26.01-12.95-36.86-22.56-16.64-14.73-28.59-32.77-35.54-53.62-3.17-9.5-5.08-19.41-5.68-29.44-1.27-21.1,2.98-41.36,12.63-60.24,4.44-8.68,10.19-16.76,17.1-24.02,14.14-14.87,31.38-24.91,51.24-29.85,7.66-1.91,15.46-2.87,23.17-2.87,1.8,0,3.63,.05,5.44,.16,21.51,1.25,40.44,8.57,56.26,21.76,17.55,14.64,28.02,33.4,31.1,55.75,3.12,22.64-2.22,43.36-15.88,61.57-12.35,16.46-28.86,26.25-49.08,29.07-3.75,.52-7.47,.79-11.08,.79-15.43,0-29.52-4.83-41.87-14.37-14.17-10.94-22.53-25.08-24.86-42.02-2.5-18.23,2.3-34.4,14.27-48.09,8.87-10.14,20.3-16.24,33.97-18.13,2.29-.32,4.61-.48,6.92-.48,10.34,0,20.3,3.14,28.8,9.08,8.49,5.94,14.73,14.12,18.03,23.66,6.79,19.61-.92,41.22-18.33,51.39-6.1,3.57-12.86,5.45-19.54,5.45-9.37,0-18.18-3.52-25.49-10.18-6.09-5.55-9.54-12.58-10.25-20.88-.54-6.3,.24-11.66,2.4-16.4,4.44-9.78,12.11-15.56,22.78-17.2,1.51-.23,3.02-.35,4.47-.35,7.12,0,13.41,2.76,18.68,8.21,3.89,4.02,6.09,8.93,6.55,14.62,.55,6.71-1.52,12.72-6.13,17.87-2.83,3.17-6.57,5.1-11.44,5.91-1.37,.23-2.7,.34-3.96,.34-4.3,0-8-1.29-11.29-3.95-6.86-5.53-8.82-14.64-4.77-22.15,2.56-4.74,7.52-7.68,12.96-7.68,4.57,0,8.67,2.08,11.26,5.71,2.35,3.29,3.04,7.11,1.9,10.45-1.18,3.46-4.23,6.1-8.6,7.42-.33,.1-.71,.15-1.11,.15-.34,0-.67-.04-.97-.11-3.31-.8-6-2.56-7.99-5.22-.76-1.02-.98-2.22-.64-3.48,.49-1.79,1.24-3.51,1.91-4.95,.74-1.58,2.13-2.02,3.18-2.12,.7-.06,1.42-.1,2.14-.1,.59,0,1.19,.02,1.77,.07,1.36,.1,2.02,1.11,2.33,1.94,.59,1.55,1.07,3.18,1.55,4.77,.13,.44,.26,.88,.4,1.32,.22,.72,.42,1.48,.61,2.21,.09,.34,.18,.69,.27,1.03l.22,.83,.85-.1,.23-.03,.23-.03,.87-.1v-.88c.03-.87,.07-1.77,.1-2.64,.08-2,.17-4.08,0-6.12-.34-3.8-3.94-7.16-8.04-7.48-.44-.03-.89-.05-1.33-.05-5.68,0-10.08,2.89-12.09,7.93-2.17,5.44-.34,12.12,4.35,15.87,2.84,2.27,6.22,3.48,9.77,3.48,6.05,0,11.66-3.52,14.63-9.19,4.17-7.95,1.94-17.53-5.41-23.29-3.82-3-8.26-4.58-12.82-4.58-6.45,0-12.94,3.17-17.37,8.47-3.75,4.49-5.61,9.66-5.52,15.37,.12,7.86,3.3,14.54,9.47,19.84,5.06,4.35,11.04,6.55,17.78,6.55h.33c14.98-.16,27.16-10.26,30.3-25.13,3.17-15.03-4.33-30.82-18.24-38.4-5.66-3.08-12.09-4.71-18.58-4.71-9.82,0-19.36,3.6-26.87,10.14-8.95,7.79-14.02,17.69-15.05,29.42-1.1,12.49,2.44,24.03,10.5,34.29,8.09,10.3,18.47,16.45,30.85,18.3,3.58,.53,7.09,.8,10.45,.8,12.74,0,24.09-3.91,33.75-11.63,6.45-5.15,11.77-11.85,16.27-20.46,3.65-6.99,5.9-14.23,6.69-21.54,1.05-9.7-.42-19.5-4.36-29.13-3.83-9.36-8.8-17.02-15.2-23.43-10.53-10.55-23.37-17.12-38.14-19.54-4.5-.74-8.97-1.11-13.31-1.11-14.98,0-28.96,4.42-41.57,13.14-18.97,13.12-30.53,31.22-34.35,53.78-4.56,26.87,2.27,51.44,20.29,73.03,10.2,12.22,23.6,21.42,39.84,27.34,9.07,3.31,18.41,5.24,27.78,5.75,2.07,.11,4.15,.17,6.18,.17,23.42,0,45.07-7.51,64.32-22.31,16.84-12.95,29.03-30.14,36.24-51.1,3.27-9.49,5.29-19.23,6.02-28.94,1.55-20.69-2.11-40.84-10.86-59.91-5.62-12.23-12.7-22.9-21.06-31.72-2.63-2.77-5.57-5.31-8.41-7.76-1.82-1.57-3.71-3.2-5.48-4.86-7.02-6.59-15.39-12.07-26.35-17.24-11.06-5.23-23.24-8.92-36.19-10.97-7.22-1.15-14.49-1.73-21.6-1.73-1.38,0-2.78,.02-4.16,.07-19.12,.6-37.62,4.95-55.01,12.91-14.67,6.72-28.07,15.79-39.83,26.96-16.45,15.62-28.98,34.62-37.25,56.46-.65,1.72-1.37,3.46-2.08,5.15v-15.41c0-26.32,0-52.63-.02-78.95,0-.7,.19-1.05,.85-1.58,1.95-1.57,3.9-3.2,5.77-4.78,1.33-1.12,2.66-2.24,4.01-3.35,20.72-17.03,42.08-28.92,65.31-36.36,11.74-3.76,24.01-6.29,36.48-7.54,6.36-.63,12.57-.95,18.46-.95m0-1c-6.19,0-12.38,.34-18.56,.96-12.5,1.25-24.73,3.75-36.69,7.58C52.34,26.38,30.68,38.97,11.02,55.14c-3.27,2.69-6.47,5.47-9.77,8.12-.83,.67-1.22,1.28-1.22,2.36,.03,32.56,.02,65.11,.02,97.67,0,.36,.04,.73,.07,1.37,.27-.57,.42-.85,.54-1.14,1.14-2.77,2.34-5.52,3.4-8.33,8.13-21.47,20.33-40.25,37-56.09,11.71-11.12,24.88-20.05,39.56-26.78,17.34-7.95,35.56-12.22,54.62-12.82,1.38-.04,2.76-.07,4.13-.06,7.18,0,14.33,.59,21.44,1.71,12.47,1.98,24.49,5.49,35.92,10.89,9.48,4.48,18.39,9.84,26.09,17.07,4.55,4.27,9.57,8.07,13.84,12.58,8.76,9.24,15.57,19.87,20.88,31.45,8.67,18.88,12.32,38.69,10.77,59.41-.73,9.81-2.76,19.38-5.96,28.69-7.02,20.39-18.79,37.47-35.91,50.64-18.93,14.56-40.15,22.11-63.71,22.11-2.03,0-4.07-.06-6.13-.17-9.45-.51-18.61-2.45-27.49-5.69-15.45-5.64-28.85-14.39-39.41-27.04-17.52-21-24.66-45.14-20.07-72.23,3.79-22.36,15.29-40.23,33.94-53.13,12.61-8.72,26.37-12.96,41-12.96,4.31,0,8.69,.37,13.14,1.1,14.55,2.38,27.15,8.8,37.6,19.26,6.62,6.63,11.45,14.46,14.99,23.1,3.76,9.19,5.36,18.73,4.29,28.64-.81,7.48-3.1,14.52-6.58,21.18-4.04,7.74-9.15,14.66-16.01,20.14-10,7.99-21.17,11.41-33.12,11.41-3.37,0-6.81-.27-10.3-.79-12.41-1.85-22.47-8.08-30.21-17.93-7.73-9.84-11.39-21.08-10.29-33.59,1.01-11.48,5.99-21.16,14.71-28.75,7.38-6.43,16.76-9.89,26.21-9.89,6.18,0,12.4,1.48,18.1,4.59,13.5,7.35,20.86,22.55,17.74,37.31-2.91,13.8-14.27,24.17-29.33,24.33-.11,0-.21,0-.32,0-6.43,0-12.21-2.09-17.12-6.31-5.83-5.01-9.01-11.4-9.12-19.1-.08-5.5,1.75-10.46,5.29-14.71,4.05-4.86,10.17-8.11,16.6-8.11,4.09,0,8.31,1.32,12.2,4.37,6.91,5.42,9.06,14.56,5.14,22.04-2.93,5.59-8.3,8.66-13.74,8.66-3.18,0-6.39-1.05-9.14-3.26-4.36-3.49-6.06-9.68-4.05-14.72,1.85-4.65,5.95-7.3,11.16-7.3,.41,0,.83,.02,1.25,.05,3.47,.27,6.82,3.13,7.12,6.57,.25,2.86-.04,5.77-.08,8.66l-.46,.05c-.29-1.09-.56-2.19-.89-3.27-.63-2.06-1.2-4.14-1.96-6.15-.53-1.4-1.59-2.46-3.19-2.58-.61-.05-1.23-.07-1.84-.07-.74,0-1.49,.03-2.22,.1-1.79,.16-3.23,1.05-4,2.69-.77,1.65-1.49,3.36-1.97,5.11-.4,1.48-.19,3.01,.81,4.34,2.17,2.91,5.06,4.74,8.55,5.59,.38,.09,.79,.14,1.21,.14,.48,0,.96-.06,1.4-.19,10.22-3.1,12.21-12.41,7.22-19.41-2.95-4.13-7.49-6.13-12.07-6.13-5.44,0-10.93,2.82-13.84,8.21-4.31,7.99-2.25,17.54,5.02,23.4,3.62,2.91,7.62,4.17,11.92,4.17,1.35,0,2.72-.12,4.12-.36,4.68-.78,8.83-2.67,12.02-6.23,4.72-5.28,6.96-11.49,6.38-18.62-.48-5.88-2.74-11.01-6.83-15.23-5.47-5.65-12.03-8.52-19.4-8.52-1.51,0-3.05,.12-4.62,.36-10.89,1.67-18.93,7.64-23.54,17.77-2.43,5.35-2.99,11.06-2.48,16.9,.73,8.56,4.24,15.75,10.58,21.53,7.58,6.91,16.79,10.44,26.16,10.44,6.78,0,13.64-1.84,20.05-5.59,18.6-10.87,25.37-33.54,18.77-52.58-6.87-19.85-26.28-33.41-47.78-33.41-2.33,0-4.69,.16-7.05,.49-13.75,1.91-25.42,7.99-34.59,18.46-12.28,14.03-17.03,30.52-14.51,48.88,2.42,17.64,11.23,31.86,25.24,42.67,12.79,9.87,27.09,14.58,42.48,14.58,3.68,0,7.42-.27,11.21-.8,20.58-2.88,37.27-12.84,49.74-29.46,13.88-18.51,19.23-39.41,16.07-62.31-3.15-22.81-13.8-41.66-31.45-56.38-16.42-13.69-35.56-20.76-56.84-21.99-1.83-.11-3.67-.16-5.49-.16-7.89,0-15.71,.99-23.42,2.9-20.16,5.02-37.4,15.08-51.72,30.14-6.91,7.26-12.7,15.34-17.26,24.26-9.76,19.08-14.03,39.34-12.74,60.76,.61,10.16,2.52,20.06,5.73,29.7,7.07,21.24,19.08,39.23,35.82,54.06,11.04,9.77,23.45,17.34,37.16,22.74,16.08,6.33,32.69,9.25,49.77,9.25,2.64,0,5.29-.07,7.95-.21,10.06-.52,19.95-2.03,29.67-4.66,22.2-5.99,41.75-16.82,58.64-32.4,14.32-13.2,25.43-28.77,33.77-46.35,4.42-9.32,7.51-19.12,10.79-28.85,.17-.51,.17-1.1,.17-1.66,0-24.32,.01-48.64-.01-72.96,0-.85-.2-1.74-.49-2.55-1.39-3.96-2.87-7.89-4.28-11.85-2.91-8.22-5.85-16.43-9.86-24.2-.77-1.5-1.77-2.97-2.97-4.14-7.92-7.8-15.92-15.52-23.89-23.27-9.17-8.92-18.34-17.85-27.5-26.78-7.13-6.95-14.25-13.91-21.39-20.85-.42-.41-.91-.81-1.44-1.05-2.95-1.35-5.88-2.71-8.88-3.94-21.9-8.98-44.78-13.21-68.34-14.08-2-.07-3.99-.11-5.99-.11h0Z"/></g></g></g><g><path class="e" d="M241,100.88c-13.71,0-24.86-11.15-24.86-24.86V1.31l89.49,99.56h-64.63Z"/><path class="j" d="M216.64,2.62l87.87,97.76h-63.51c-13.43,0-24.36-10.93-24.36-24.36V2.62M215.64,0V76.02c0,14.01,11.35,25.36,25.36,25.36h65.75L215.64,0h0Z"/></g><g><path class="h" d="M218.49,51.34l21.55-15.66-10.05,24.14,24.98-7.73-17.62,19.98-1.14-1.25,13.69-15.52s-22.64,7.05-22.66,7.02l9.13-21.9-16.74,12.17-1.14-1.25Z"/><path class="h" d="M251.95,70.04l-9,8.19-1.14-1.25,18.93-17.22,3.33,3.66c2.81,3.09,3.33,7.08,.1,10.03-3.15,2.87-7.04,2.3-10.01-.96l-2.22-2.44Zm1.14-1.03l2.27,2.5c2.25,2.47,5.22,2.83,7.6,.66,2.36-2.14,2.39-5.08-.12-7.83l-2.09-2.3-7.66,6.97Z"/><path class="h" d="M258.7,86.31c-.71,.7-1.22,1.57-1.45,2.46-.38,1.64,.15,3.7,1.29,4.95,2.12,2.33,5.92,2.4,8.27,.26,1.62-1.47,2.12-3.38,1.84-4.94-.17-.99-.8-2.02-1.63-2.93l1.13-1.03c1.32,1.45,2.85,1.71,3.21,1.75,1.43,.2,3.11-.29,4.36-1.42,2.01-1.83,2.53-4.63,.38-6.99-.7-.77-1.85-1.74-3.59-1.72-1.2,0-2.44,.51-3.41,1.33l-1.08-1.19c1.45-1.26,3.18-1.75,4.67-1.71,2.2,.08,3.61,1.23,4.54,2.25,2.84,3.12,2.34,6.9-.25,9.25-1.62,1.47-4.31,2.62-7.28,1.18,1.21,2.64,.47,5.48-1.68,7.44-3.18,2.89-7.81,2.59-10.62-.5-1.55-1.7-2.4-4.35-1.66-6.79,.26-.91,.8-1.97,1.82-2.9l1.14,1.25Z"/></g><path class="g" d="M85.23,195.82c.66-1.02,1.56-1.76,2.69-2.11,1.22-.38,2.48-.62,3.72-.92,.41-.1,.81-.2,1.31-.32-.82-.54-1.55-1.02-2.29-1.51-.95-.62-1.92-1.23-2.86-1.87-.33-.23-.65-.51-.91-.81-.53-.63-.49-1.29,.13-1.82,.36-.3,.77-.56,1.19-.75,1.87-.85,3.76-1.68,5.63-2.51,.32-.14,.62-.29,.94-.44,.94-.43,1.24-1.2,1.12-2.17-.11-.94-.28-1.87-.34-2.82-.05-.72-.03-1.46,.07-2.17,.27-1.86-.03-3.65-.6-5.4-1.28-3.96-2.59-7.92-3.89-11.87-1.35-4.11-2.73-8.22-4.06-12.34-.87-2.71-.26-5.2,1.43-7.41,1.34-1.75,3.49-2.17,5.39-1.04,1.07,.63,2.04,1.46,2.95,2.31,5.19,4.85,10.85,9.08,16.94,12.71,4,2.39,8.15,4.48,12.42,6.34,.69,.3,1.24,.21,1.83-.27,1.04-.85,2.15-1.6,3.21-2.43,2.09-1.64,3.59-3.71,4.62-6.16,.32-.76,.74-1.49,1.24-2.15,1.03-1.38,2.5-1.88,4.18-1.83,1.37,.04,2.67,.43,3.97,.81,.16,.05,.31,.09,.51,.14,.32-1.11,.62-2.2,.93-3.3,.68-2.41,1.39-4.82,2.61-7.03,.61-1.11,1.26-2.2,2.18-3.1,1.29-1.25,2.96-1.39,4.19-.36,.58,.49,.99,1.11,1.24,1.82,1.18,3.39,2.35,6.78,3.52,10.17,.1,.28,.17,.56,.27,.84,.26,.73,.54,.86,1.28,.66,.73-.19,1.46-.4,2.2-.52,1.78-.29,3.45-.07,4.85,1.2,.87,.79,1.46,1.77,1.95,2.82,.3,.65,.57,1.31,.89,1.95,.73,1.44,1.8,2.57,3.21,3.37,1.08,.61,1.82,1.55,2.56,2.51,.19,.24,.37,.49,.56,.73,.54,.64,1.02,.79,1.8,.46,1.26-.53,2.52-1.07,3.76-1.65,9.94-4.62,18.9-10.7,26.9-18.19,.6-.56,1.22-1.1,1.9-1.55,2.19-1.46,4.69-1.02,6.3,1.06,1.41,1.82,1.87,3.9,1.42,6.12-.44,2.18-1.05,4.32-1.63,6.46-1.24,4.58-2.6,9.12-4.47,13.49-.83,1.95-1.79,3.85-2.73,5.75-.43,.88-.47,1.79-.48,2.73-.01,2.66-.02,5.32-.03,7.99,0,.68,.24,.99,.95,1.28,1.98,.82,3.97,1.64,5.95,2.47,.47,.2,.93,.42,1.38,.67,.31,.17,.61,.38,.87,.62,.55,.52,.62,1.13,.12,1.7-.37,.43-.82,.81-1.29,1.12-1.45,.98-2.94,1.91-4.41,2.86-.1,.07-.2,.14-.36,.25,1.1,.25,2.14,.48,3.18,.73,1.23,.3,2.44,.68,3.55,1.3,.96,.53,1.14,1.32,.36,2.09-.69,.67-1.47,1.27-2.27,1.81-4.09,2.81-7.91,5.95-11.46,9.42-2.19,2.14-4.25,4.39-6.23,6.73-2.17,2.57-3.76,5.44-4.87,8.62-2.42,6.9-6.06,13.15-10.48,18.96-5.1,6.69-9.54,13.8-13.44,21.24-1.1,2.1-2.2,4.19-3.7,6.04-3.35,4.13-7.65,6.71-12.86,7.69-4.22,.8-8.13-.14-11.74-2.41-4.06-2.56-7.07-6.02-9-10.45-2.9-6.65-6.73-12.75-11.25-18.41-1.81-2.27-3.68-4.49-5.31-6.9-3.62-5.33-6.39-11.08-8.51-17.16-.34-.96-.67-1.93-1.06-2.87-.18-.44-.44-.88-.76-1.23-3.45-3.78-6.91-7.55-10.38-11.31-2.22-2.41-4.8-4.37-7.49-6.2-1.81-1.23-3.51-2.61-5.07-4.15-.04-.04-.08-.1-.14-.16Z"/></svg>