<?xml version="1.0" encoding="UTF-8"?><svg id="a" xmlns="http://www.w3.org/2000/svg" viewBox="0 0 565.83 767.39"><defs><style>.b{fill:#fff;}</style></defs><path class="b" d="M454.31,163.14h89.44L422.36,28.42v102.76c0,17.62,14.33,31.96,31.96,31.96Z"/><path class="b" d="M454.31,198.55c-37.15,0-67.38-30.22-67.38-67.37V.45C228.59,.15,103.31,0,33.48,0,15.02,0,0,15.02,0,33.47V733.33c0,18.45,15.02,33.47,33.48,33.47h43.41l.65,.58h455.76c.79-.17,1.72-.33,2.77-.42,15.49-1.33,28.18-14.13,29.57-29.78,.13-1.41,.2-2.66,.2-3.85V198.57l-111.52-.02Zm24.29,207.29c-1.99,1.95-4.25,3.65-6.55,5.24-11.81,8.13-22.84,17.18-33.09,27.21-6.32,6.18-12.28,12.69-17.99,19.43-6.27,7.41-10.84,15.71-14.08,24.9-7,19.92-17.49,37.98-30.25,54.73-14.72,19.32-27.55,39.83-38.81,61.33-3.17,6.06-6.35,12.09-10.69,17.44-9.67,11.92-22.08,19.36-37.12,22.21-12.18,2.31-23.48-.42-33.89-6.97-11.74-7.39-20.41-17.4-25.99-30.16-8.39-19.2-19.42-36.81-32.48-53.16-5.23-6.55-10.63-12.97-15.34-19.92-10.44-15.4-18.45-32-24.58-49.55-.97-2.78-1.94-5.57-3.07-8.29-.53-1.27-1.28-2.54-2.21-3.56-9.96-10.91-19.96-21.79-29.98-32.65-6.4-6.94-13.86-12.63-21.64-17.92-5.24-3.56-10.14-7.53-14.64-11.99-.13-.13-.23-.28-.4-.47,1.91-2.94,4.49-5.09,7.78-6.1,3.52-1.08,7.15-1.79,10.73-2.65,1.17-.28,2.35-.57,3.78-.91-2.36-1.55-4.47-2.96-6.6-4.35-2.75-1.8-5.54-3.54-8.25-5.39-.97-.66-1.87-1.46-2.63-2.35-1.54-1.81-1.43-3.73,.37-5.26,1.02-.87,2.22-1.61,3.45-2.17,5.4-2.47,10.84-4.84,16.27-7.26,.91-.4,1.8-.85,2.71-1.27,2.7-1.25,3.58-3.46,3.24-6.28-.33-2.71-.82-5.41-.99-8.13-.14-2.08-.08-4.21,.22-6.27,.77-5.37-.08-10.54-1.72-15.6-3.71-11.44-7.48-22.86-11.24-34.28-3.91-11.87-7.89-23.73-11.73-35.62-2.52-7.83-.76-15.02,4.12-21.39,3.86-5.05,10.09-6.27,15.57-3.02,3.08,1.83,5.88,4.23,8.51,6.68,15,14,31.31,26.21,48.93,36.7,11.56,6.89,23.54,12.94,35.86,18.32,1.98,.86,3.57,.62,5.29-.79,2.99-2.46,6.22-4.63,9.27-7.02,6.04-4.72,10.38-10.72,13.35-17.79,.92-2.19,2.15-4.31,3.57-6.21,2.98-3.98,7.21-5.43,12.07-5.29,3.96,.12,7.7,1.25,11.46,2.34,.45,.13,.91,.26,1.47,.42,.91-3.21,1.8-6.36,2.7-9.51,1.98-6.96,4.01-13.9,7.53-20.29,1.76-3.21,3.64-6.36,6.29-8.94,3.72-3.62,8.54-4.01,12.1-1.03,1.69,1.41,2.87,3.2,3.59,5.25,3.42,9.78,6.79,19.58,10.17,29.38,.28,.8,.5,1.62,.78,2.42,.75,2.12,1.55,2.49,3.71,1.92,2.1-.56,4.2-1.17,6.34-1.51,5.13-.84,9.95-.2,14,3.46,2.51,2.27,4.23,5.1,5.64,8.14,.87,1.87,1.64,3.8,2.58,5.63,2.12,4.15,5.21,7.43,9.26,9.74,3.11,1.77,5.25,4.49,7.38,7.24,.54,.7,1.06,1.42,1.63,2.1,1.56,1.85,2.95,2.28,5.2,1.34,3.64-1.52,7.27-3.1,10.85-4.76,28.71-13.33,54.57-30.89,77.67-52.52,1.72-1.61,3.53-3.17,5.48-4.48,6.33-4.21,13.53-2.95,18.19,3.06,4.08,5.26,5.41,11.28,4.11,17.67-1.28,6.28-3.04,12.47-4.72,18.66-3.59,13.22-7.52,26.33-12.9,38.94-2.4,5.63-5.16,11.11-7.87,16.59-1.25,2.53-1.37,5.17-1.38,7.87-.03,7.69-.06,15.37-.08,23.06,0,1.96,.69,2.85,2.73,3.69,5.73,2.37,11.45,4.74,17.17,7.14,1.36,.57,2.69,1.22,3.97,1.94,.89,.5,1.76,1.1,2.51,1.8,1.6,1.51,1.78,3.27,.34,4.92-1.08,1.23-2.38,2.33-3.74,3.25-4.2,2.82-8.48,5.52-12.73,8.27-.3,.19-.59,.41-1.04,.73,3.18,.73,6.19,1.4,9.18,2.12,3.56,.85,7.03,1.97,10.26,3.76,2.78,1.54,3.3,3.82,1.04,6.03Z"/></svg>